<svg width="38" height="36" viewBox="0 0 38 36" shape-rendering="geometricPrecision" xmlns="http://www.w3.org/2000/svg" xmlns:xlink="http://www.w3.org/1999/xlink"> <path d="M7.26883 31.9246Q7.69874 31.2546 8.216 30.5853L5.84226 28.7508Q5.10137 29.7095 4.50913 30.6794Q3.92493 31.6361 3.73566 32.2827Q3.52772 32.9931 3.71317 33.5759Q4.08206 34.7353 5.33187 34.7894Q5.39668 34.7922 6.03918 34.8412Q15.6826 35.5759 22.2463 35.4912Q27.9451 35.4177 31.0566 34.7293Q33.0719 34.2833 34.1335 33.5359Q35.8425 32.3326 35.4289 30.5032Q34.7617 27.5517 28.6964 24.0579Q25.3504 22.1305 16.8868 18.257Q2.96633 11.8861 1.62194 9.53973Q1.77072 9.48652 1.992 9.42966Q3.38759 9.07109 6.39904 9.12063Q10.2855 9.18457 19.8004 10.2423Q28.7599 11.2383 29.9696 10.7499Q31.3174 10.2057 31.372 8.72417Q31.4022 7.90374 30.9169 6.84737Q30.2754 5.45108 28.6293 3.37223Q26.8248 1.09332 24.703 -1.05427L22.5689 1.05417Q24.575 3.08468 26.2774 5.23459Q27.6355 6.94979 28.1446 8.00173Q26.3437 7.95126 20.1318 7.26069Q10.4763 6.1873 6.44838 6.12104Q3.03266 6.06484 1.24545 6.52404Q-1.97068 7.35037 -1.44126 9.84473Q-0.884483 12.468 4.66959 15.6264Q7.71885 17.3604 15.6383 20.9849Q31.8821 28.4191 32.5028 31.1647L32.4064 31.0829Q31.8366 31.4841 30.4084 31.8001Q27.5981 32.4219 22.2076 32.4915Q16.119 32.57 7.26883 31.9246Z" stroke-dasharray="" stroke-linecap="butt" stroke-linejoin="miter" stroke-width="3" shape-rendering="geometricPrecision" fill="#409EFF" transform="matrix(-0.3713906337998341 0.928476707906966 -0.928476707906966 -0.3713906337998341 44.008442280167856 9.156153634151906)" fill-rule="evenodd"></path> </svg>