<svg width="38" height="36" xmlns="http://www.w3.org/2000/svg" shape-rendering="geometricPrecision">

 <g>
  <title>Layer 1</title>
  <path id="svg_1" fill-rule="evenodd" fill="#008eff" shape-rendering="geometricPrecision" stroke-width="3" d="m11.66762,4.0486q0.46241,0.64799 0.89174,1.37683l2.58488,-1.52265q-0.61497,-1.04395 -1.29555,-1.95404q-0.67131,-0.89773 -1.20137,-1.3136q-0.58236,-0.4569 -1.19235,-0.50116q-1.21348,-0.08808 -1.72788,1.05224q-0.02667,0.05913 -0.31078,0.63748q-4.26363,8.68083 -6.62268,14.80653q-2.04824,5.3185 -2.56466,8.46312q-0.33436,2.0368 -0.03469,3.30005q0.48253,2.03366 2.33469,2.32907q2.98819,0.47668 8.4847,-3.85725q3.03222,-2.39086 9.77198,-8.81054q11.08516,-10.55874 13.76301,-10.93556q-0.00585,0.1579 -0.03524,0.38447q-0.18539,1.42894 -1.34981,4.20661q-1.50276,3.58474 -6.01858,12.02627q-4.25224,7.94878 -4.24804,9.25335q0.00472,1.45351 1.36001,2.05443q0.75053,0.33274 1.91159,0.27448q1.53467,-0.07705 4.07618,-0.83335q2.78609,-0.82907 5.56809,-2.00152l-1.16505,-2.76452q-2.63033,1.1085 -5.25872,1.89069q-2.09691,0.62396 -3.26269,0.70596q0.7157,-1.65335 3.66392,-7.16448q4.58258,-8.56626 6.14003,-12.28148q1.32075,-3.15054 1.55814,-4.98047q0.42721,-3.29299 -2.08536,-3.72782q-2.64243,-0.4573 -7.63766,3.52652q-2.74245,2.18718 -9.04892,8.1941q-12.93528,12.321 -15.71502,11.87761l0.11175,-0.05913q-0.16089,-0.67805 0.07613,-2.12146q0.46639,-2.84023 2.40375,-7.87103q2.18836,-5.68228 6.07447,-13.65976z"/>
 </g>
</svg>