<?xml version="1.0" standalone="no"?><!DOCTYPE svg PUBLIC "-//W3C//DTD SVG 1.1//EN" "http://www.w3.org/Graphics/SVG/1.1/DTD/svg11.dtd"><svg t="1709996713057" class="icon" viewBox="0 0 1024 1024" version="1.1" xmlns="http://www.w3.org/2000/svg" p-id="7233" xmlns:xlink="http://www.w3.org/1999/xlink" width="200" height="200"><path d="M906.757251 288.592814l0-44.118823L112.58466 244.473991l0 44.118823L906.757251 288.592814 906.757251 288.592814zM487.608985 729.801515l44.122917 0L531.731902 398.893966 487.608985 398.893966 487.608985 729.801515 487.608985 729.801515zM355.248422 685.679621l44.12087 0L399.369292 443.015859l-44.12087 0L355.248422 685.679621 355.248422 685.679621zM619.972619 685.679621l44.121893 0L664.094512 443.015859l-44.121893 0L619.972619 685.679621 619.972619 685.679621zM818.513464 791.571347 818.513464 264.012999l0-19.539009-19.302625 0L404.759045 244.473991 220.126978 244.473991l-19.303648 0 0 19.539009L200.82333 791.571347c0 75.269287 60.762899 136.771013 135.12042 136.771013l347.449293 0C757.754658 928.34236 818.513464 866.840634 818.513464 791.571347L818.513464 791.571347zM339.489506 884.22456c-51.955302 0-94.542236-43.478234-94.542236-96.514147l0-499.117598 529.448394 0 0 499.117598c0 53.035914-42.591027 96.514147-94.544283 96.514147L339.489506 884.22456 339.489506 884.22456zM642.033054 244.914012l0-19.358907 0-58.072627c0-43.598984-33.04972-77.431533-75.636654-77.431533L452.944488 90.050945c-42.591027 0-75.636654 33.83255-75.636654 77.431533l0 58.072627 0 19.358907 18.908652 0 113.454982 0 113.450888 0L642.033054 244.914012 642.033054 244.914012zM421.42768 244.473991l0-66.183352c0-25.318642 15.040555-44.1178 35.299971-44.1178l105.887632 0c20.2543 0 35.295877 18.799158 35.295877 44.1178l0 66.183352L421.42768 244.473991 421.42768 244.473991zM421.42768 244.473991" p-id="7234"></path></svg>