<?xml version="1.0" standalone="no"?><!DOCTYPE svg PUBLIC "-//W3C//DTD SVG 1.1//EN" "http://www.w3.org/Graphics/SVG/1.1/DTD/svg11.dtd"><svg t="1709996989084" class="icon" viewBox="0 0 1024 1024" version="1.1" xmlns="http://www.w3.org/2000/svg" p-id="11553" xmlns:xlink="http://www.w3.org/1999/xlink" width="200" height="200"><path d="M485.717333 196.949333a26.282667 26.282667 0 0 1 52.565334 0v157.525334a26.282667 26.282667 0 0 1-52.565334 0V196.9152z m161.109334 29.047467a26.282667 26.282667 0 0 1 45.4656 26.282667l-78.779734 136.430933a26.282667 26.282667 0 0 1-45.4656-26.282667l78.7456-136.430933z m124.928 105.710933a26.282667 26.282667 0 1 1 26.248533 45.499734l-136.430933 78.7456a26.282667 26.282667 0 0 1-26.282667-45.4656l136.430933-78.779734z m55.296 154.043734a26.282667 26.282667 0 1 1 0 52.497066h-157.525334a26.282667 26.282667 0 0 1 0-52.497066h157.559467z m-29.047467 161.041066a26.282667 26.282667 0 0 1-26.282667 45.499734l-136.430933-78.779734a26.282667 26.282667 0 0 1 26.282667-45.4656l136.430933 78.7456z m-105.710933 124.928a26.282667 26.282667 0 1 1-45.499734 26.282667l-78.7456-136.430933a26.282667 26.282667 0 0 1 45.4656-26.282667l78.779734 136.430933z m-154.043734 55.364267a26.282667 26.282667 0 1 1-52.497066 0v-157.559467a26.282667 26.282667 0 0 1 52.497066 0v157.559467z m-161.041066-29.0816a26.282667 26.282667 0 0 1-45.499734-26.282667l78.779734-136.430933a26.282667 26.282667 0 0 1 45.4656 26.282667l-78.7456 136.430933z m-124.928-105.710933a26.282667 26.282667 0 0 1-26.282667-45.499734l136.430933-78.7456a26.282667 26.282667 0 0 1 26.282667 45.4656L252.245333 692.292267z m-55.364267-154.043734a26.282667 26.282667 0 0 1 0-52.497066h157.559467a26.282667 26.282667 0 0 1 0 52.497066H196.9152z m29.0816-161.041066a26.282667 26.282667 0 0 1 26.282667-45.499734l136.430933 78.779734a26.282667 26.282667 0 0 1-26.282667 45.4656l-136.430933-78.7456z m105.710933-124.928a26.282667 26.282667 0 0 1 45.499734-26.282667l78.7456 136.430933a26.282667 26.282667 0 0 1-45.4656 26.282667L331.707733 252.245333z" p-id="11554"></path></svg>