<?xml version="1.0" standalone="no"?><!DOCTYPE svg PUBLIC "-//W3C//DTD SVG 1.1//EN" "http://www.w3.org/Graphics/SVG/1.1/DTD/svg11.dtd"><svg t="1709996630493" class="icon" viewBox="0 0 1024 1024" version="1.1" xmlns="http://www.w3.org/2000/svg" p-id="4265" xmlns:xlink="http://www.w3.org/1999/xlink" width="200" height="200"><path d="M1012.367323 1013.138662c-14.857819 14.481102-38.945217 14.481102-53.805083 0l-152.191814-156.861882c-85.021449 67.221549-193.272445 107.649067-311.291479 107.649067C221.923969 963.927894 0.487798 748.148627 0.487798 481.964971S221.923969 0 495.078946 0c273.15293 0 494.589101 215.779267 494.589101 481.964971 0 124.458037-48.825861 237.532654-128.300965 323.041379l151.00024 155.698972C1027.227189 975.192565 1027.227189 998.66575 1012.367323 1013.138662zM495.078946 97.4347c-231.132552 0-395.233961 159.296214-395.233961 384.528223 0 225.227915 164.103457 384.536413 395.233961 384.536413 231.130504 0 395.231913-159.308498 395.231913-384.536413C890.31086 256.732961 726.209451 97.4347 495.078946 97.4347z" p-id="4266"></path></svg>