<?xml version="1.0" standalone="no"?><!DOCTYPE svg PUBLIC "-//W3C//DTD SVG 1.1//EN" "http://www.w3.org/Graphics/SVG/1.1/DTD/svg11.dtd"><svg t="1710228607620" class="icon" viewBox="0 0 1024 1024" version="1.1" xmlns="http://www.w3.org/2000/svg" p-id="8320" xmlns:xlink="http://www.w3.org/1999/xlink" width="200" height="200"><path d="M512 85.333333C276.48 85.333333 85.333333 276.48 85.333333 512S276.48 938.666667 512 938.666667 938.666667 747.52 938.666667 512 747.52 85.333333 512 85.333333zM483.555556 307.2c0-15.928889 12.515556-28.444444 28.444444-28.444444s28.444444 12.515556 28.444444 28.444444v238.933333c0 15.928889-12.515556 28.444444-28.444444 28.444445s-28.444444-12.515556-28.444444-28.444445V307.2zM512 722.488889c-21.617778 0-39.822222-18.204444-39.822222-39.822222s18.204444-39.822222 39.822222-39.822223 39.822222 18.204444 39.822222 39.822223-18.204444 39.822222-39.822222 39.822222z" p-id="8321"></path></svg>